<svg xmlns="http://www.w3.org/2000/svg" width="31.494" height="28.852" viewBox="0 0 8.333 7.634"><path d="M1.948 7.24c-.091-.238-.04-.56.116-.715.403-.404 1.167-.035 1.061.512-.117.609-.965.756-1.177.204zm4.578.22c-.387-.388-.164-1.147.338-1.147.623 0 .866.337.65.902-.167.432-.674.558-.988.244zM2.571 5.32c-.058-.108-.38-1.24-.714-2.513C1.309.724 1.185.492.624.492.28.492 0 .365 0 .211 0 .054.37-.034.837.012c.81.08.857.155 1.49 2.398l.655 2.315H6.59l.541-1.224c.298-.673.542-1.268.542-1.323 0-.054-.96-.098-2.132-.098-1.355 0-2.073-.097-1.97-.265.09-.146 1.237-.265 2.548-.265 2.718 0 2.62-.18 1.377 2.537L6.84 5.519H4.76c-1.145 0-2.13-.09-2.188-.198z"/></svg>