<svg xmlns="http://www.w3.org/2000/svg" width="56.835" height="50.813" viewBox="0 0 15.038 13.444"><path d="M9.235 1.782a4.955 4.955 0 0 0-2.319.61c-.656.37-1.306.95-1.306 1.237 0 .59.09.466 1.645-.323 1.548-.785 3.021-.811 4.504-.138 1.062.483 2.743 2.16 2.743 2.723 0 .165-.01.249.075.164.189-.188-.14-1.136-.999-2.287-.908-1.217-2.446-1.92-3.995-1.983a5.565 5.565 0 0 0-.348-.003zm-6.79.91c-.199-.021-.419.094-.718.313-.467.341-.424.486.875 2.917.752 1.407 1.367 2.616 1.367 2.687 0 .071-.736-.242-1.636-.696-1.55-.782-1.655-.801-1.985-.35-.191.261-.348.545-.348.63 0 .084 1.101.695 2.447 1.358 1.346.662 2.472 1.225 2.5 1.25.03.026-.12-.366-.33-.87-.211-.505.065-1.623.065-2.57 0-1.336-.609-2.12-1.165-3.254-.471-.961-.741-1.379-1.072-1.415zm9.064 2.203l.596.504c.269.228.404.442.468.581a1.26 1.26 0 0 0-.392-.557zm-3.903.132c-.047 0-.15.077-.265.187.16-.119.317-.187.265-.187zm-.265.187a1 1 0 0 0-.175.16.682.682 0 0 0-.084.13c.02-.026.038-.052.062-.08.065-.079.132-.148.197-.21zm-.259.29c-.135.18-.198.317-.135.317.058 0 .05-.146.135-.316zm5.507.515c.014.041.02.066.02.066.02.097.027.05-.02-.066zm.58.728l.03 1.062c-.135.701-.514 1.35-1.157 1.939-.808.74-1.133 1.061-2.318 1.061-.935 0-1.666-.334-2.365-.808-.53-.36-1.006-.639-1.003-.534.013.403.955 1.373 1.714 1.763 2.401 1.236 5.209-.636 5.13-3.42zm-7.414 5.002l.495.464s0-.001 0 0c-.099-.105-.248-.255-.495-.464zm.251.461l.003.002h.002c-.002 0-.003 0-.005-.002zm.245.003v.001-.001z" fill="#fab9c2"/><path d="M7.813 13.072c-1.336-.49-2.587-1.529-3.211-2.877-.417-.9-.358-1.754-.363-5.63L4.234 0H5.82v1.984c0 1.092.03 1.984.066 1.984.037-.001.652-.299 1.368-.662 1.554-.788 3.046-.84 4.52-.159 3.565 1.651 4.364 5.919 1.622 8.662-1.61 1.609-3.482 2.032-5.584 1.263zm3.506-1.947c1.66-.89 2.379-3.102 1.5-4.8-.874-1.69-3.363-2.347-5.035-1.328-.921.562-1.698 1.988-1.698 3.117 0 1.78 1.802 3.503 3.605 3.503.441 0 1.132-.226 1.628-.492zM1.098 3.13l-.038.012.017.028.005-.011.016-.03zM2.914 6.916l-.004.011.001-.002v.003l.002.007v.002zM2.998 7.12l-.001.01v.008l.001.005v-.024zM2.245 7.61l-.034.051.033-.05z" fill="#f28292"/></svg>